<svg width="156" height="61" xmlns="http://www.w3.org/2000/svg">

 <g>
  <title>Layer 1</title>
  <path id="svg_1" fill="#97a0af" d="m40.3,52.5c0,-4.9 -4,-8.9 -9,-8.9s-9,4 -9,8.9s4,8.9 9,8.9s9,-4 9,-8.9z"/>
  <g id="svg_2" fill="#153359">
   <path id="svg_3" d="m103.5,18.3c0,10.1 8.1,18.3 18.1,18.3l15.7,0c3.4,0 6,3 6,6.4s-2.8,6.1 -6.2,6.1l-48.6,0.1c-10.1,0 -18.1,-8.4 -18.1,-18.3s8.2,-18 18.2,-18l8.1,0l0.1,-12.7l-8,0c-17.2,0 -31.2,13.8 -31.2,30.8s14.6,30.3 31.8,30.3l47.6,0c10.3,0 18.6,-8.2 18.6,-18.4s-8.3,-18.4 -18.6,-18.4l-14.2,0c-3.3,0 -5.9,-2.6 -5.9,-5.8s2.6,-6.1 5.9,-6.1l32.8,0.1l0,-12.7l-34,0c-10,0 -18.1,8.2 -18.1,18.3z"/>
   <path id="svg_4" d="m31.6,15.2l16.4,46.2l14.9,0l-19.8,-53.8c-1.7,-4.4 -6.3,-7.6 -11.6,-7.6c-5.7,0 -10.7,3.4 -12.1,8.4l-19.4,52.7l14.6,0l17,-45.9z"/>
  </g>
 </g>
</svg>